<svg width="500" height="500" viewBox="0 0 500 500" fill="none" xmlns="http://www.w3.org/2000/svg">
<rect width="500" height="500" fill="#C1B1FF"/>
<circle cx="222" cy="219" r="160" fill="#4EAC45"/>
<path d="M353.873 198.795C348.878 132.325 281.392 83.8233 236.154 83.1959C222.51 83.0067 216.427 105.48 232.991 106.368C284.127 109.111 318.793 150.409 333.69 205.468C336.358 215.328 354.67 209.401 353.873 198.795Z" fill="#F8FFF6"/>
<circle cx="338.431" cy="344.569" r="100.431" fill="#62D359"/>
<path d="M419.717 328.845C414.973 286.508 370.737 257.108 341.829 257.765C333.111 257.963 330.301 274.742 340.901 274.922C373.625 275.479 396.731 301.046 407.533 335.863C409.467 342.098 420.474 335.601 419.717 328.845Z" fill="#FAF8FF"/>
</svg>
